<?xml version="1.0" encoding="UTF-8" standalone="no"?>
<!DOCTYPE svg PUBLIC "-//W3C//DTD SVG 1.1//EN" "http://www.w3.org/Graphics/SVG/1.1/DTD/svg11.dtd">

<svg xmlns="http://www.w3.org/2000/svg" x="0px" y="0px" width="192" height="192" viewBox="0 0 172 172"
style=" fill:#000000;"><g fill="none" fill-rule="nonzero" stroke="none" stroke-width="1" stroke-linecap="butt" stroke-linejoin="miter" stroke-miterlimit="10" stroke-dasharray="" stroke-dashoffset="0" font-family="none" font-weight="none" font-size="none" text-anchor="none" style="mix-blend-mode: normal"><path d="M0,172v-172h172v172z" fill="none"></path><path d="M25.8,172c-14.24895,0 -25.8,-11.55105 -25.8,-25.8v-120.4c0,-14.24895 11.55105,-25.8 25.8,-25.8h120.4c14.24895,0 25.8,11.55105 25.8,25.8v120.4c0,14.24895 -11.55105,25.8 -25.8,25.8z" fill="#24252a"></path><g id="original-icon" fill="#ffebcd" opacity="0" visibility="hidden"><path d="M40.21568,48.05535c-0.07961,0.00173 -0.15899,0.00923 -0.23751,0.02247h-7.95325v1.64329v23.006c0,3.82686 2.04274,7.05126 4.92986,9.14078v48.37423c0,3.61085 2.9623,6.57314 6.57314,6.57314c3.61085,0 6.57314,-2.9623 6.57314,-6.57314v-20.40627c6.08675,13.93521 19.98806,23.69284 36.15229,23.69284c16.16423,0 30.06554,-9.75763 36.15229,-23.69284v20.12704c0,3.48899 2.61962,6.65401 6.2233,6.84275c3.75766,0.19549 6.92298,-2.83672 6.92298,-6.56352v-33.49479l6.57314,-3.28657v-27.30679c0,-9.96391 -8.11223,-18.07614 -18.07614,-18.07614v3.28657l-1.64329,-1.64329v28.6227c-6.08675,-13.93521 -19.98806,-23.69284 -36.15229,-23.69284c-12.70296,0 -24.00664,6.02767 -31.22243,15.3705v-21.94364h-7.96288c-0.09227,-0.01542 -0.18568,-0.02294 -0.27923,-0.02247c-0.07961,0.00173 -0.15899,0.00923 -0.23751,0.02247h-6.05641c-0.09227,-0.01542 -0.18568,-0.02294 -0.27923,-0.02247zM35.3115,51.36439h3.28657v16.43286c-0.00838,0.59263 0.30298,1.14386 0.81486,1.44262c0.51188,0.29876 1.14497,0.29876 1.65685,0c0.51188,-0.29876 0.82324,-0.84999 0.81486,-1.44262v-16.43286h3.28657v16.43286c-0.00838,0.59263 0.30298,1.14386 0.81486,1.44262c0.51188,0.29876 1.14497,0.29876 1.65685,0c0.51188,-0.29876 0.82324,-0.84999 0.81486,-1.44262v-16.43286h3.28657v21.36272c0,3.05197 -1.65516,5.68637 -4.11142,7.10914l-0.81843,0.47501v49.93086c0,1.835 -1.45157,3.28657 -3.28657,3.28657c-1.835,0 -3.28657,-1.45157 -3.28657,-3.28657v-49.93086l-0.81843,-0.47501c-2.45626,-1.42277 -4.11142,-4.05717 -4.11142,-7.10914zM125.69222,51.69497c7.37063,0.85031 13.14629,6.85473 13.14629,14.45899v25.27836l-6.57314,3.28657v35.52322c0,1.89324 -1.5382,3.38367 -3.46631,3.28336c-1.73042,-0.09063 -3.10684,-1.71419 -3.10684,-3.56259zM86.25336,57.93753c19.98582,0 36.15229,16.16647 36.15229,36.15229c0,19.98582 -16.16647,36.15229 -36.15229,36.15229c-19.98582,0 -36.15229,-16.16647 -36.15229,-36.15229c0,-19.98582 16.16647,-36.15229 36.15229,-36.15229zM86.25336,71.08382c-0.90756,0 -1.64329,0.73572 -1.64329,1.64329c0,0.90756 0.73572,1.64329 1.64329,1.64329c0.90756,0 1.64329,-0.73572 1.64329,-1.64329c0,-0.90756 -0.73572,-1.64329 -1.64329,-1.64329zM78.09149,72.70785c-0.22019,-0.00171 -0.43849,0.04086 -0.64191,0.12517c-0.40263,0.16684 -0.72249,0.48679 -0.88922,0.88946c-0.16673,0.40268 -0.16666,0.85509 0.00018,1.25772c0.16684,0.40263 0.48679,0.72249 0.88947,0.88922c0.40268,0.16673 0.85509,0.16666 1.25772,-0.00018c0.40263,-0.16684 0.72249,-0.48679 0.88922,-0.88946c0.16673,-0.40268 0.16667,-0.85509 -0.00018,-1.25772c-0.2526,-0.60965 -0.84539,-1.00905 -1.50528,-1.01422zM94.46658,72.70785c-0.67854,-0.01583 -1.29699,0.38712 -1.55663,1.01422c-0.16684,0.40263 -0.1669,0.85504 -0.00018,1.25772c0.16673,0.40268 0.48659,0.72262 0.88922,0.88946c0.40263,0.16684 0.85504,0.1669 1.25772,0.00018c0.40268,-0.16673 0.72263,-0.48659 0.88947,-0.88922c0.16684,-0.40263 0.1669,-0.85504 0.00018,-1.25772c-0.16673,-0.40268 -0.48659,-0.72263 -0.88922,-0.88946c-0.18743,-0.07783 -0.38766,-0.12027 -0.59056,-0.12517zM71.17172,77.33922c-0.44357,-0.00596 -0.87071,0.16767 -1.18432,0.48143c-0.64158,0.64171 -0.64158,1.68199 0,2.32371c0.64171,0.64158 1.68199,0.64158 2.32371,0c0.64158,-0.64171 0.64158,-1.68199 0,-2.32371c-0.3026,-0.30275 -0.71138,-0.47547 -1.13939,-0.48143zM101.38314,77.34243c-0.44468,-0.00683 -0.87314,0.16687 -1.18753,0.48143c-0.64158,0.64171 -0.64158,1.68199 0,2.32371c0.64171,0.64158 1.68199,0.64158 2.32371,0c0.64158,-0.64171 0.64158,-1.68199 0,-2.32371c-0.30181,-0.30198 -0.70929,-0.47464 -1.13618,-0.48143zM106.00167,84.26862c-0.22019,-0.00171 -0.43849,0.04086 -0.64191,0.12517c-0.40263,0.16684 -0.72249,0.48679 -0.88922,0.88947c-0.16673,0.40268 -0.16666,0.85509 0.00018,1.25772c0.16684,0.40263 0.48679,0.72249 0.88946,0.88922c0.40268,0.16673 0.85509,0.16667 1.25772,-0.00018c0.40263,-0.16684 0.72249,-0.48679 0.88922,-0.88946c0.16673,-0.40268 0.16666,-0.85509 -0.00018,-1.25772c-0.2526,-0.60965 -0.84539,-1.00905 -1.50528,-1.01421zM66.55639,84.27183c-0.67853,-0.01583 -1.29699,0.38712 -1.55663,1.01421c-0.16684,0.40263 -0.1669,0.85504 -0.00018,1.25772c0.16673,0.40268 0.48659,0.72263 0.88922,0.88946c0.40303,0.16666 0.85578,0.16626 1.25852,-0.0011c0.40274,-0.16736 0.72243,-0.48795 0.88866,-0.89116c0.16684,-0.40263 0.1669,-0.85504 0.00018,-1.25772c-0.16673,-0.40268 -0.48659,-0.72263 -0.88922,-0.88947c-0.18764,-0.07673 -0.38787,-0.11808 -0.59056,-0.12196zM64.89064,92.44653c-0.90756,0 -1.64329,0.73572 -1.64329,1.64329c0,0.90756 0.73572,1.64329 1.64329,1.64329c0.90756,0 1.64329,-0.73572 1.64329,-1.64329c0,-0.90756 -0.73572,-1.64329 -1.64329,-1.64329zM66.53072,100.62124c-0.22019,-0.00171 -0.43849,0.04086 -0.64191,0.12517c-0.40263,0.16684 -0.72249,0.48679 -0.88922,0.88946c-0.16673,0.40268 -0.16666,0.85509 0.00018,1.25772c0.16684,0.40263 0.48679,0.72249 0.88946,0.88922c0.40268,0.16673 0.85509,0.16666 1.25772,-0.00018c0.40263,-0.16684 0.72249,-0.48679 0.88922,-0.88947c0.16673,-0.40268 0.16666,-0.85509 -0.00018,-1.25772c-0.2526,-0.60965 -0.84539,-1.00905 -1.50527,-1.01422zM71.17172,107.55064c-0.44468,-0.00683 -0.87314,0.16687 -1.18753,0.48143c-0.64158,0.64171 -0.64158,1.68199 0,2.32371c0.64171,0.64158 1.68199,0.64158 2.32371,0c0.64158,-0.64171 0.64158,-1.68199 0,-2.32371c-0.30181,-0.30198 -0.70929,-0.47464 -1.13618,-0.48143zM78.11396,112.18201c-0.67737,-0.01449 -1.29421,0.38823 -1.55342,1.01421c-0.16684,0.40263 -0.1669,0.85504 -0.00018,1.25772c0.16673,0.40268 0.48659,0.72263 0.88922,0.88946c0.40263,0.16684 0.85504,0.1669 1.25772,0.00018c0.40268,-0.16673 0.72263,-0.48659 0.88946,-0.88922c0.16684,-0.40263 0.1669,-0.85504 0.00018,-1.25772c-0.16673,-0.40268 -0.48659,-0.72262 -0.88922,-0.88946c-0.18844,-0.07822 -0.38979,-0.12067 -0.59377,-0.12517z"></path></g><g id="subtracted-icon" fill="#ffebcd"><path d="M26.13174,34.4h7.92393c0.10273,-0.01731 0.20659,-0.02714 0.31074,-0.02939c0.12239,-0.00062 0.24461,0.00922 0.36533,0.02939h10.41826v28.71006c9.44082,-12.22373 24.23002,-20.11006 40.85,-20.11006c21.14854,0 39.33638,12.76644 47.3,30.99863v-37.44863l2.15,2.15v-4.3c13.03633,0 23.65,10.61367 23.65,23.65v35.72695l-8.6,4.3v5.4781c-0.3906,-0.15709 -0.78413,-0.30703 -1.18035,-0.44966l-2.322,-5.805c-0.1917,-0.47956 -0.46401,-0.91072 -0.79765,-1.28044v-0.59692l8.6,-4.3v-33.07305c0,-9.94907 -7.5566,-17.80498 -17.2,-18.91748v55.46748h-4.3c0,-26.14853 -21.15147,-47.3 -47.3,-47.3c-26.14853,0 -47.3,21.15147 -47.3,47.3c0,26.14853 21.15147,47.3 47.3,47.3c6.1575,0 12.0379,-1.17288 17.43027,-3.3077c0.09316,0.98793 0.23006,1.97626 0.41043,2.96155l-1.59726,2.02997c-5.1078,1.69712 -10.56905,2.61618 -16.24344,2.61618c-21.14854,0 -39.33638,-12.76644 -47.3,-30.99863v26.69863c0,4.72427 -3.87573,8.6 -8.6,8.6c-4.72427,0 -8.6,-3.87573 -8.6,-8.6v-63.29063c-3.77737,-2.73383 -6.45,-6.95249 -6.45,-11.95938v-32.25h10.40566c0.10273,-0.01731 0.20659,-0.02714 0.31074,-0.02939c0.12239,-0.00062 0.24461,0.00922 0.36533,0.02939zM19.35,66.65c0,3.99306 2.16554,7.43978 5.3792,9.30127l1.0708,0.62148v65.32725c0,2.40083 1.89917,4.3 4.3,4.3c2.40083,0 4.3,-1.89917 4.3,-4.3v-65.32725l1.0708,-0.62148c3.21366,-1.86149 5.3792,-5.30821 5.3792,-9.30127v-27.95h-4.3v21.5c0.01097,0.77537 -0.39641,1.49657 -1.06613,1.88746c-0.66972,0.39088 -1.49803,0.39088 -2.16775,0c-0.66972,-0.39088 -1.07709,-1.11209 -1.06613,-1.88746v-21.5h-4.3v21.5c0.01097,0.77537 -0.39641,1.49657 -1.06613,1.88746c-0.66972,0.39088 -1.49803,0.39088 -2.16775,0c-0.66972,-0.39088 -1.07709,-1.11209 -1.06613,-1.88746v-21.5h-4.3zM88.15,66.65c0,1.18741 -0.96259,2.15 -2.15,2.15c-1.18741,0 -2.15,-0.96259 -2.15,-2.15c0,-1.18741 0.96259,-2.15 2.15,-2.15c1.18741,0 2.15,0.96259 2.15,2.15zM77.29082,67.95176c0.21829,0.52678 0.21837,1.1187 0.00023,1.64554c-0.21814,0.52684 -0.63663,0.94545 -1.16341,1.16373c-0.52678,0.21829 -1.1187,0.21837 -1.64554,0.00023c-0.52684,-0.21814 -0.94545,-0.63663 -1.16374,-1.16341c-0.21829,-0.52678 -0.21837,-1.1187 -0.00023,-1.64554c0.21814,-0.52684 0.63663,-0.94545 1.16341,-1.16373c0.26615,-0.11031 0.55175,-0.166 0.83984,-0.16377c0.86337,0.00675 1.63894,0.52932 1.96943,1.32695zM97.51846,66.78857c0.52678,0.21828 0.94528,0.63689 1.16341,1.16373c0.21814,0.52684 0.21806,1.11876 -0.00023,1.64554c-0.21828,0.52678 -0.63689,0.94527 -1.16374,1.16341c-0.52684,0.21814 -1.11876,0.21806 -1.64554,-0.00023c-0.52678,-0.21828 -0.94527,-0.63689 -1.16341,-1.16373c-0.21814,-0.52684 -0.21806,-1.11876 0.00023,-1.64554c0.3397,-0.82046 1.14886,-1.34767 2.03662,-1.32695c0.26546,0.00641 0.52743,0.06194 0.77266,0.16377zM67.75859,73.31416c0.83941,0.83959 0.83941,2.20065 0,3.04024c-0.83959,0.83941 -2.20065,0.83941 -3.04024,0c-0.83941,-0.83959 -0.83941,-2.20065 0,-3.04024c0.41031,-0.4105 0.96916,-0.63768 1.54951,-0.62988c0.55998,0.0078 1.09482,0.23378 1.49072,0.62988zM107.28164,73.31836c0.83941,0.83959 0.83941,2.20065 0,3.04024c-0.83959,0.83941 -2.20065,0.83941 -3.04024,0c-0.83941,-0.83959 -0.83941,-2.20065 0,-3.04024c0.41133,-0.41156 0.97191,-0.63882 1.55371,-0.62988c0.55852,0.00888 1.09166,0.23479 1.48653,0.62988zM113.80723,83.07734c0.21829,0.52678 0.21837,1.1187 0.00023,1.64554c-0.21814,0.52684 -0.63663,0.94545 -1.16341,1.16373c-0.52678,0.21829 -1.1187,0.21837 -1.64554,0.00023c-0.52684,-0.21814 -0.94545,-0.63663 -1.16373,-1.16341c-0.21829,-0.52678 -0.21837,-1.1187 -0.00023,-1.64554c0.21814,-0.52684 0.63663,-0.94545 1.16341,-1.16374c0.26615,-0.11031 0.55175,-0.166 0.83984,-0.16377c0.86337,0.00675 1.63894,0.52932 1.96943,1.32695zM61.00205,81.91416c0.52678,0.21828 0.94527,0.63689 1.16341,1.16374c0.21814,0.52684 0.21806,1.11876 -0.00023,1.64554c-0.21748,0.52754 -0.63576,0.94699 -1.16268,1.16595c-0.52693,0.21896 -1.11928,0.21948 -1.64659,0.00143c-0.52678,-0.21828 -0.94528,-0.63689 -1.16341,-1.16373c-0.21814,-0.52684 -0.21806,-1.11876 0.00023,-1.64554c0.3397,-0.82046 1.14886,-1.34767 2.03662,-1.32695c0.26519,0.00507 0.52715,0.05917 0.77266,0.15957zM60.2,94.6c0,1.18741 -0.96259,2.15 -2.15,2.15c-1.18741,0 -2.15,-0.96259 -2.15,-2.15c0,-1.18741 0.96259,-2.15 2.15,-2.15c1.18741,0 2.15,0.96259 2.15,2.15zM62.16523,104.47236c0.21829,0.52678 0.21837,1.1187 0.00023,1.64554c-0.21814,0.52684 -0.63663,0.94545 -1.16341,1.16374c-0.52678,0.21829 -1.1187,0.21837 -1.64554,0.00023c-0.52684,-0.21814 -0.94545,-0.63663 -1.16373,-1.16341c-0.21829,-0.52678 -0.21837,-1.1187 -0.00023,-1.64554c0.21814,-0.52684 0.63663,-0.94545 1.16341,-1.16373c0.26615,-0.11031 0.55175,-0.166 0.83984,-0.16377c0.86336,0.00676 1.63894,0.52932 1.96943,1.32695zM67.75439,112.84141c0.83941,0.83959 0.83941,2.20065 0,3.04024c-0.83959,0.83941 -2.20065,0.83941 -3.04024,0c-0.83941,-0.83959 -0.83941,-2.20065 0,-3.04024c0.41133,-0.41156 0.97191,-0.63882 1.55371,-0.62988c0.55852,0.00888 1.09165,0.23479 1.48652,0.62988zM76.12764,118.43477c0.52678,0.21828 0.94527,0.63689 1.16341,1.16373c0.21814,0.52684 0.21806,1.11876 -0.00023,1.64554c-0.21828,0.52678 -0.63689,0.94528 -1.16373,1.16341c-0.52684,0.21814 -1.11876,0.21806 -1.64554,-0.00023c-0.52678,-0.21828 -0.94528,-0.63689 -1.16341,-1.16373c-0.21814,-0.52684 -0.21806,-1.11876 0.00023,-1.64554c0.33914,-0.81901 1.14618,-1.34592 2.03242,-1.32695c0.26687,0.00589 0.53032,0.06143 0.77686,0.16377z"></path></g><g><g id="Layer_1" fill="#ffebcd"><path d="M167.7817,135.45c0,-2.38865 -0.29885,-4.79665 -0.8858,-7.1767l5.1041,-6.48655l-5.32985,-9.2235l-8.1657,1.17605c-3.5045,-3.3583 -7.7615,-5.8136 -12.42915,-7.16595l-3.06805,-7.67335h-10.64895l-3.0702,7.6712c-4.66765,1.3545 -8.9268,3.8098 -12.4313,7.1681l-8.16355,-1.17605l-5.32985,9.2235l5.1041,6.48655c-0.58695,2.38005 -0.8858,4.78805 -0.8858,7.1767c0,2.38865 0.29885,4.79665 0.8858,7.1767l-5.1041,6.48655l5.32985,9.2235l8.1657,-1.17605c3.5045,3.3583 7.7615,5.8136 12.42915,7.16595l3.06805,7.67335h10.64895l3.0702,-7.6712c4.66765,-1.35235 8.92465,-3.80765 12.42915,-7.16595l8.1657,1.17605l5.32985,-9.2235l-5.1041,-6.48655c0.58695,-2.3822 0.8858,-4.7902 0.8858,-7.17885zM162.47335,128.3765c0.6708,2.3435 1.00835,4.72355 1.00835,7.0735c0,2.34995 -0.33755,4.73 -1.00835,7.0735l-0.301,1.05565l4.644,5.9039l-2.41445,4.18175l-7.4347,-1.0707l-0.76325,0.78905c-3.34325,3.45075 -7.5766,5.8953 -12.24855,7.06275l-1.06425,0.2666l-2.795,6.9875h-4.8289l-2.795,-6.9875l-1.06425,-0.2666c-4.67195,-1.16745 -8.90745,-3.612 -12.24855,-7.06275l-0.76325,-0.78905l-7.4347,1.0707l-2.41445,-4.18175l4.644,-5.9039l-0.301,-1.05565c-0.6708,-2.3435 -1.00835,-4.72355 -1.00835,-7.0735c0,-2.34995 0.33755,-4.73 1.00835,-7.0735l0.301,-1.05565l-4.644,-5.9039l2.41445,-4.18175l7.4347,1.0707l0.76325,-0.78905c3.34325,-3.45075 7.5766,-5.8953 12.24855,-7.06275l1.06425,-0.2666l2.795,-6.9875h4.8289l2.795,6.9875l1.06425,0.2666c4.67195,1.16745 8.90745,3.612 12.24855,7.06275l0.76325,0.78905l7.4347,-1.0707l2.41445,4.18175l-4.644,5.9039zM137.6817,118.25c-9.48365,0 -17.2,7.71635 -17.2,17.2c0,9.48365 7.71635,17.2 17.2,17.2c9.48365,0 17.2,-7.71635 17.2,-17.2c0,-9.48365 -7.71635,-17.2 -17.2,-17.2zM137.6817,148.35c-7.11435,0 -12.9,-5.78565 -12.9,-12.9c0,-7.11435 5.78565,-12.9 12.9,-12.9c7.11435,0 12.9,5.78565 12.9,12.9c0,7.11435 -5.78565,12.9 -12.9,12.9z"></path></g><g id="Layer_1" fill="#000000" opacity="0"><path d="M171.5227,141.55385c0.37195,-2.03175 0.559,-4.0764 0.559,-6.10385c0,-2.02745 -0.18705,-4.0721 -0.559,-6.10385l3.8571,-4.902c1.0879,-1.38245 1.22335,-3.28735 0.344,-4.80955l-5.32985,-9.2235c-0.77615,-1.3416 -2.2016,-2.14785 -3.72165,-2.14785c-0.20425,0 -0.4085,0.01505 -0.6149,0.043l-6.17695,0.8901c-3.1218,-2.63375 -6.71445,-4.70635 -10.5608,-6.09095l-2.322,-5.805c-0.65145,-1.6297 -2.23385,-2.7004 -3.9904,-2.7004h-10.64895c-1.7587,0 -3.33895,1.0707 -3.99255,2.70255l-2.322,5.805c-3.8485,1.38245 -7.439,3.45505 -10.56295,6.0888l-6.1748,-0.8901c-0.20425,-0.0301 -0.41065,-0.043 -0.6149,-0.043c-1.52005,0 -2.9455,0.80625 -3.72165,2.14785l-5.32985,9.2235c-0.87935,1.5222 -0.7439,3.4271 0.344,4.80955l3.8571,4.902c-0.37195,2.03175 -0.559,4.0764 -0.559,6.10385c0,2.02745 0.18705,4.0721 0.559,6.10385l-3.8571,4.902c-1.0879,1.38245 -1.22335,3.28735 -0.344,4.80955l5.32985,9.2235c0.77615,1.3416 2.2016,2.15 3.72165,2.15c0.20425,0 0.4085,-0.01505 0.6149,-0.04515l6.17695,-0.8901c3.1218,2.63375 6.71445,4.70635 10.5608,6.0888l2.322,5.805c0.65145,1.63185 2.23385,2.70255 3.9904,2.70255h10.64895c1.7587,0 3.33895,-1.0707 3.99255,-2.70255l2.322,-5.805c3.84635,-1.3846 7.439,-3.45505 10.5608,-6.0888l6.17695,0.8901c0.2064,0.0301 0.41065,0.04515 0.6149,0.04515c1.52005,0 2.9455,-0.80625 3.72165,-2.15l5.32985,-9.2235c0.87935,-1.5222 0.7439,-3.4271 -0.344,-4.80955z"></path></g></g><path d="M35.26,172c-19.47356,0 -35.26,-15.78644 -35.26,-35.26v-101.48c0,-19.47356 15.78644,-35.26 35.26,-35.26h101.48c19.47356,0 35.26,15.78644 35.26,35.26v101.48c0,19.47356 -15.78644,35.26 -35.26,35.26z" fill="none"></path><path d="M38.7,168.56c-19.47356,0 -35.26,-15.78644 -35.26,-35.26v-94.6c0,-19.47356 15.78644,-35.26 35.26,-35.26h94.6c19.47356,0 35.26,15.78644 35.26,35.26v94.6c0,19.47356 -15.78644,35.26 -35.26,35.26z" fill="none"></path><path d="M37.84,172c-20.89845,0 -37.84,-16.94155 -37.84,-37.84v-96.32c0,-20.89845 16.94155,-37.84 37.84,-37.84h96.32c20.89845,0 37.84,16.94155 37.84,37.84v96.32c0,20.89845 -16.94155,37.84 -37.84,37.84z" fill="none"></path><path d="M41.28,168.56c-20.89845,0 -37.84,-16.94155 -37.84,-37.84v-89.44c0,-20.89845 16.94155,-37.84 37.84,-37.84h89.44c20.89845,0 37.84,16.94155 37.84,37.84v89.44c0,20.89845 -16.94155,37.84 -37.84,37.84z" fill="none"></path><path d="M36.98,172c-20.42349,0 -36.98,-16.55651 -36.98,-36.98v-98.04c0,-20.42349 16.55651,-36.98 36.98,-36.98h98.04c20.42349,0 36.98,16.55651 36.98,36.98v98.04c0,20.42349 -16.55651,36.98 -36.98,36.98z" fill="none"></path><path d="M40.42,168.56c-20.42349,0 -36.98,-16.55651 -36.98,-36.98v-91.16c0,-20.42349 16.55651,-36.98 36.98,-36.98h91.16c20.42349,0 36.98,16.55651 36.98,36.98v91.16c0,20.42349 -16.55651,36.98 -36.98,36.98z" fill="none"></path><path d="M36.12,172c-19.94853,0 -36.12,-16.17147 -36.12,-36.12v-99.76c0,-19.94853 16.17147,-36.12 36.12,-36.12h99.76c19.94853,0 36.12,16.17147 36.12,36.12v99.76c0,19.94853 -16.17147,36.12 -36.12,36.12z" fill="none"></path><path d="M39.56,168.56c-19.94853,0 -36.12,-16.17147 -36.12,-36.12v-92.88c0,-19.94853 16.17147,-36.12 36.12,-36.12h92.88c19.94853,0 36.12,16.17147 36.12,36.12v92.88c0,19.94853 -16.17147,36.12 -36.12,36.12z" fill="none"></path><path d="M35.26,172c-19.47356,0 -35.26,-15.78644 -35.26,-35.26v-101.48c0,-19.47356 15.78644,-35.26 35.26,-35.26h101.48c19.47356,0 35.26,15.78644 35.26,35.26v101.48c0,19.47356 -15.78644,35.26 -35.26,35.26z" fill="none"></path><path d="M38.7,168.56c-19.47356,0 -35.26,-15.78644 -35.26,-35.26v-94.6c0,-19.47356 15.78644,-35.26 35.26,-35.26h94.6c19.47356,0 35.26,15.78644 35.26,35.26v94.6c0,19.47356 -15.78644,35.26 -35.26,35.26z" fill="none"></path><path d="M34.4,172c-18.9986,0 -34.4,-15.4014 -34.4,-34.4v-103.2c0,-18.9986 15.4014,-34.4 34.4,-34.4h103.2c18.9986,0 34.4,15.4014 34.4,34.4v103.2c0,18.9986 -15.4014,34.4 -34.4,34.4z" fill="none"></path><path d="M37.84,168.56c-18.9986,0 -34.4,-15.4014 -34.4,-34.4v-96.32c0,-18.9986 15.4014,-34.4 34.4,-34.4h96.32c18.9986,0 34.4,15.4014 34.4,34.4v96.32c0,18.9986 -15.4014,34.4 -34.4,34.4z" fill="none"></path><path d="M33.54,172c-18.52363,0 -33.54,-15.01637 -33.54,-33.54v-104.92c0,-18.52363 15.01637,-33.54 33.54,-33.54h104.92c18.52363,0 33.54,15.01637 33.54,33.54v104.92c0,18.52363 -15.01637,33.54 -33.54,33.54z" fill="none"></path><path d="M36.98,168.56c-18.52363,0 -33.54,-15.01637 -33.54,-33.54v-98.04c0,-18.52363 15.01637,-33.54 33.54,-33.54h98.04c18.52363,0 33.54,15.01637 33.54,33.54v98.04c0,18.52363 -15.01637,33.54 -33.54,33.54z" fill="none"></path><path d="M32.68,172c-18.04867,0 -32.68,-14.63133 -32.68,-32.68v-106.64c0,-18.04867 14.63133,-32.68 32.68,-32.68h106.64c18.04867,0 32.68,14.63133 32.68,32.68v106.64c0,18.04867 -14.63133,32.68 -32.68,32.68z" fill="none"></path><path d="M36.12,168.56c-18.04867,0 -32.68,-14.63133 -32.68,-32.68v-99.76c0,-18.04867 14.63133,-32.68 32.68,-32.68h99.76c18.04867,0 32.68,14.63133 32.68,32.68v99.76c0,18.04867 -14.63133,32.68 -32.68,32.68z" fill="none"></path><path d="M31.82,172c-17.5737,0 -31.82,-14.2463 -31.82,-31.82v-108.36c0,-17.5737 14.2463,-31.82 31.82,-31.82h108.36c17.5737,0 31.82,14.2463 31.82,31.82v108.36c0,17.5737 -14.2463,31.82 -31.82,31.82z" fill="none"></path><path d="M35.26,168.56c-17.5737,0 -31.82,-14.2463 -31.82,-31.82v-101.48c0,-17.5737 14.2463,-31.82 31.82,-31.82h101.48c17.5737,0 31.82,14.2463 31.82,31.82v101.48c0,17.5737 -14.2463,31.82 -31.82,31.82z" fill="none"></path><path d="M30.96,172c-17.09874,0 -30.96,-13.86126 -30.96,-30.96v-110.08c0,-17.09874 13.86126,-30.96 30.96,-30.96h110.08c17.09874,0 30.96,13.86126 30.96,30.96v110.08c0,17.09874 -13.86126,30.96 -30.96,30.96z" fill="none"></path><path d="M34.4,168.56c-17.09874,0 -30.96,-13.86126 -30.96,-30.96v-103.2c0,-17.09874 13.86126,-30.96 30.96,-30.96h103.2c17.09874,0 30.96,13.86126 30.96,30.96v103.2c0,17.09874 -13.86126,30.96 -30.96,30.96z" fill="none"></path><path d="M30.1,172c-16.62377,0 -30.1,-13.47623 -30.1,-30.1v-111.8c0,-16.62377 13.47623,-30.1 30.1,-30.1h111.8c16.62377,0 30.1,13.47623 30.1,30.1v111.8c0,16.62377 -13.47623,30.1 -30.1,30.1z" fill="none"></path><path d="M33.54,168.56c-16.62377,0 -30.1,-13.47623 -30.1,-30.1v-104.92c0,-16.62377 13.47623,-30.1 30.1,-30.1h104.92c16.62377,0 30.1,13.47623 30.1,30.1v104.92c0,16.62377 -13.47623,30.1 -30.1,30.1z" fill="none"></path><path d="M29.24,172c-16.14881,0 -29.24,-13.09119 -29.24,-29.24v-113.52c0,-16.14881 13.09119,-29.24 29.24,-29.24h113.52c16.14881,0 29.24,13.09119 29.24,29.24v113.52c0,16.14881 -13.09119,29.24 -29.24,29.24z" fill="none"></path><path d="M32.68,168.56c-16.14881,0 -29.24,-13.09119 -29.24,-29.24v-106.64c0,-16.14881 13.09119,-29.24 29.24,-29.24h106.64c16.14881,0 29.24,13.09119 29.24,29.24v106.64c0,16.14881 -13.09119,29.24 -29.24,29.24z" fill="none"></path><path d="M28.38,172c-15.67384,0 -28.38,-12.70616 -28.38,-28.38v-115.24c0,-15.67384 12.70616,-28.38 28.38,-28.38h115.24c15.67384,0 28.38,12.70616 28.38,28.38v115.24c0,15.67384 -12.70616,28.38 -28.38,28.38z" fill="none"></path><path d="M31.82,168.56c-15.67384,0 -28.38,-12.70616 -28.38,-28.38v-108.36c0,-15.67384 12.70616,-28.38 28.38,-28.38h108.36c15.67384,0 28.38,12.70616 28.38,28.38v108.36c0,15.67384 -12.70616,28.38 -28.38,28.38z" fill="none"></path><path d="M27.52,172c-15.19888,0 -27.52,-12.32112 -27.52,-27.52v-116.96c0,-15.19888 12.32112,-27.52 27.52,-27.52h116.96c15.19888,0 27.52,12.32112 27.52,27.52v116.96c0,15.19888 -12.32112,27.52 -27.52,27.52z" fill="none"></path><path d="M30.96,168.56c-15.19888,0 -27.52,-12.32112 -27.52,-27.52v-110.08c0,-15.19888 12.32112,-27.52 27.52,-27.52h110.08c15.19888,0 27.52,12.32112 27.52,27.52v110.08c0,15.19888 -12.32112,27.52 -27.52,27.52z" fill="none"></path><path d="M26.66,172c-14.72391,0 -26.66,-11.93609 -26.66,-26.66v-118.68c0,-14.72391 11.93609,-26.66 26.66,-26.66h118.68c14.72391,0 26.66,11.93609 26.66,26.66v118.68c0,14.72391 -11.93609,26.66 -26.66,26.66z" fill="none"></path><path d="M30.1,168.56c-14.72391,0 -26.66,-11.93609 -26.66,-26.66v-111.8c0,-14.72391 11.93609,-26.66 26.66,-26.66h111.8c14.72391,0 26.66,11.93609 26.66,26.66v111.8c0,14.72391 -11.93609,26.66 -26.66,26.66z" fill="none"></path><path d="M25.8,172c-14.24895,0 -25.8,-11.55105 -25.8,-25.8v-120.4c0,-14.24895 11.55105,-25.8 25.8,-25.8h120.4c14.24895,0 25.8,11.55105 25.8,25.8v120.4c0,14.24895 -11.55105,25.8 -25.8,25.8z" fill="none"></path><path d="M29.24,168.56c-14.24895,0 -25.8,-11.55105 -25.8,-25.8v-113.52c0,-14.24895 11.55105,-25.8 25.8,-25.8h113.52c14.24895,0 25.8,11.55105 25.8,25.8v113.52c0,14.24895 -11.55105,25.8 -25.8,25.8z" fill="none"></path><path d="M24.94,172c-13.77398,0 -24.94,-11.16602 -24.94,-24.94v-122.12c0,-13.77398 11.16602,-24.94 24.94,-24.94h122.12c13.77398,0 24.94,11.16602 24.94,24.94v122.12c0,13.77398 -11.16602,24.94 -24.94,24.94z" fill="none"></path><path d="M28.38,168.56c-13.77398,0 -24.94,-11.16602 -24.94,-24.94v-115.24c0,-13.77398 11.16602,-24.94 24.94,-24.94h115.24c13.77398,0 24.94,11.16602 24.94,24.94v115.24c0,13.77398 -11.16602,24.94 -24.94,24.94z" fill="none"></path><path d="M24.08,172c-13.29902,0 -24.08,-10.78098 -24.08,-24.08v-123.84c0,-13.29902 10.78098,-24.08 24.08,-24.08h123.84c13.29902,0 24.08,10.78098 24.08,24.08v123.84c0,13.29902 -10.78098,24.08 -24.08,24.08z" fill="none"></path><path d="M27.52,168.56c-13.29902,0 -24.08,-10.78098 -24.08,-24.08v-116.96c0,-13.29902 10.78098,-24.08 24.08,-24.08h116.96c13.29902,0 24.08,10.78098 24.08,24.08v116.96c0,13.29902 -10.78098,24.08 -24.08,24.08z" fill="none"></path><path d="M22.36,172c-12.34909,0 -22.36,-10.01091 -22.36,-22.36v-127.28c0,-12.34909 10.01091,-22.36 22.36,-22.36h127.28c12.34909,0 22.36,10.01091 22.36,22.36v127.28c0,12.34909 -10.01091,22.36 -22.36,22.36z" fill="none"></path><path d="M25.8,168.56c-12.34909,0 -22.36,-10.01091 -22.36,-22.36v-120.4c0,-12.34909 10.01091,-22.36 22.36,-22.36h120.4c12.34909,0 22.36,10.01091 22.36,22.36v120.4c0,12.34909 -10.01091,22.36 -22.36,22.36z" fill="none"></path><path d="M21.5,172c-11.87412,0 -21.5,-9.62588 -21.5,-21.5v-129c0,-11.87412 9.62588,-21.5 21.5,-21.5h129c11.87412,0 21.5,9.62588 21.5,21.5v129c0,11.87412 -9.62588,21.5 -21.5,21.5z" fill="none"></path><path d="M24.94,168.56c-11.87412,0 -21.5,-9.62588 -21.5,-21.5v-122.12c0,-11.87412 9.62588,-21.5 21.5,-21.5h122.12c11.87412,0 21.5,9.62588 21.5,21.5v122.12c0,11.87412 -9.62588,21.5 -21.5,21.5z" fill="none"></path><path d="M20.64,172c-11.39916,0 -20.64,-9.24084 -20.64,-20.64v-130.72c0,-11.39916 9.24084,-20.64 20.64,-20.64h130.72c11.39916,0 20.64,9.24084 20.64,20.64v130.72c0,11.39916 -9.24084,20.64 -20.64,20.64z" fill="none"></path><path d="M24.08,168.56c-11.39916,0 -20.64,-9.24084 -20.64,-20.64v-123.84c0,-11.39916 9.24084,-20.64 20.64,-20.64h123.84c11.39916,0 20.64,9.24084 20.64,20.64v123.84c0,11.39916 -9.24084,20.64 -20.64,20.64z" fill="none"></path><path d="M19.78,172c-10.92419,0 -19.78,-8.85581 -19.78,-19.78v-132.44c0,-10.92419 8.85581,-19.78 19.78,-19.78h132.44c10.92419,0 19.78,8.85581 19.78,19.78v132.44c0,10.92419 -8.85581,19.78 -19.78,19.78z" fill="none"></path><path d="M23.22,168.56c-10.92419,0 -19.78,-8.85581 -19.78,-19.78v-125.56c0,-10.92419 8.85581,-19.78 19.78,-19.78h125.56c10.92419,0 19.78,8.85581 19.78,19.78v125.56c0,10.92419 -8.85581,19.78 -19.78,19.78z" fill="none"></path><path d="M18.92,172c-10.44923,0 -18.92,-8.47077 -18.92,-18.92v-134.16c0,-10.44923 8.47077,-18.92 18.92,-18.92h134.16c10.44923,0 18.92,8.47077 18.92,18.92v134.16c0,10.44923 -8.47077,18.92 -18.92,18.92z" fill="none"></path><path d="M22.36,168.56c-10.44923,0 -18.92,-8.47077 -18.92,-18.92v-127.28c0,-10.44923 8.47077,-18.92 18.92,-18.92h127.28c10.44923,0 18.92,8.47077 18.92,18.92v127.28c0,10.44923 -8.47077,18.92 -18.92,18.92z" fill="none"></path><path d="M18.06,172c-9.97426,0 -18.06,-8.08574 -18.06,-18.06v-135.88c0,-9.97426 8.08574,-18.06 18.06,-18.06h135.88c9.97426,0 18.06,8.08574 18.06,18.06v135.88c0,9.97426 -8.08574,18.06 -18.06,18.06z" fill="none"></path><path d="M21.5,168.56c-9.97426,0 -18.06,-8.08574 -18.06,-18.06v-129c0,-9.97426 8.08574,-18.06 18.06,-18.06h129c9.97426,0 18.06,8.08574 18.06,18.06v129c0,9.97426 -8.08574,18.06 -18.06,18.06z" fill="none"></path><path d="M17.2,172c-9.4993,0 -17.2,-7.7007 -17.2,-17.2v-137.6c0,-9.4993 7.7007,-17.2 17.2,-17.2h137.6c9.4993,0 17.2,7.7007 17.2,17.2v137.6c0,9.4993 -7.7007,17.2 -17.2,17.2z" fill="none"></path><path d="M20.64,168.56c-9.4993,0 -17.2,-7.7007 -17.2,-17.2v-130.72c0,-9.4993 7.7007,-17.2 17.2,-17.2h130.72c9.4993,0 17.2,7.7007 17.2,17.2v130.72c0,9.4993 -7.7007,17.2 -17.2,17.2z" fill="none"></path><path d="M18.06,172c-9.97426,0 -18.06,-8.08574 -18.06,-18.06v-135.88c0,-9.97426 8.08574,-18.06 18.06,-18.06h135.88c9.97426,0 18.06,8.08574 18.06,18.06v135.88c0,9.97426 -8.08574,18.06 -18.06,18.06z" fill="none"></path><path d="M21.5,168.56c-9.97426,0 -18.06,-8.08574 -18.06,-18.06v-129c0,-9.97426 8.08574,-18.06 18.06,-18.06h129c9.97426,0 18.06,8.08574 18.06,18.06v129c0,9.97426 -8.08574,18.06 -18.06,18.06z" fill="none"></path><path d="M18.92,172c-10.44923,0 -18.92,-8.47077 -18.92,-18.92v-134.16c0,-10.44923 8.47077,-18.92 18.92,-18.92h134.16c10.44923,0 18.92,8.47077 18.92,18.92v134.16c0,10.44923 -8.47077,18.92 -18.92,18.92z" fill="none"></path><path d="M22.36,168.56c-10.44923,0 -18.92,-8.47077 -18.92,-18.92v-127.28c0,-10.44923 8.47077,-18.92 18.92,-18.92h127.28c10.44923,0 18.92,8.47077 18.92,18.92v127.28c0,10.44923 -8.47077,18.92 -18.92,18.92z" fill="none"></path><path d="M19.78,172c-10.92419,0 -19.78,-8.85581 -19.78,-19.78v-132.44c0,-10.92419 8.85581,-19.78 19.78,-19.78h132.44c10.92419,0 19.78,8.85581 19.78,19.78v132.44c0,10.92419 -8.85581,19.78 -19.78,19.78z" fill="none"></path><path d="M23.22,168.56c-10.92419,0 -19.78,-8.85581 -19.78,-19.78v-125.56c0,-10.92419 8.85581,-19.78 19.78,-19.78h125.56c10.92419,0 19.78,8.85581 19.78,19.78v125.56c0,10.92419 -8.85581,19.78 -19.78,19.78z" fill="none"></path><path d="M20.64,172c-11.39916,0 -20.64,-9.24084 -20.64,-20.64v-130.72c0,-11.39916 9.24084,-20.64 20.64,-20.64h130.72c11.39916,0 20.64,9.24084 20.64,20.64v130.72c0,11.39916 -9.24084,20.64 -20.64,20.64z" fill="none"></path><path d="M24.08,168.56c-11.39916,0 -20.64,-9.24084 -20.64,-20.64v-123.84c0,-11.39916 9.24084,-20.64 20.64,-20.64h123.84c11.39916,0 20.64,9.24084 20.64,20.64v123.84c0,11.39916 -9.24084,20.64 -20.64,20.64z" fill="none"></path></g></svg>