<?xml version="1.0" encoding="UTF-8" standalone="no"?>
<!DOCTYPE svg PUBLIC "-//W3C//DTD SVG 1.1//EN" "http://www.w3.org/Graphics/SVG/1.1/DTD/svg11.dtd">

<svg xmlns="http://www.w3.org/2000/svg" x="0px" y="0px" 
width="80" height="80" viewBox="0 0 172 172"
style=" fill:#000000;">
<g fill="none" fill-rule="nonzero" stroke="none" stroke-width="1" stroke-linecap="butt" stroke-linejoin="miter" 
stroke-miterlimit="10" stroke-dasharray="" stroke-dashoffset="0" font-family="none" font-weight="none" 
font-size="none" text-anchor="none" style="mix-blend-mode: normal">
    <path d="M0,172v-172h172v172z" fill="none" stroke="none">
    </path>
    <g id="original-icon" fill="#ffebcd" stroke="none" opacity="0" visibility="hidden">
        <path d="M25.76641,34.37061c-0.10416,0.00226 -0.20801,0.01208 -0.31074,0.02939h-10.40566v2.15v30.1c0,
        5.00689 2.67263,9.22554 6.45,11.95938v63.29063c0,4.72427 3.87573,8.6 8.6,8.6c4.72427,0 8.6,-3.87573 8.6,
        -8.6v-26.69863c7.96362,18.23219 26.15146,30.99863 47.3,30.99863c21.14854,0 39.33638,-12.76644 47.3,
        -30.99863v26.3333c0,4.56483 3.42739,8.70581 8.14228,8.95274c4.91636,0.25576 9.05772,-3.71143 9.05772,
        -8.5874v-43.82305l8.6,-4.3v-35.72695c0,-13.03633 -10.61367,-23.65 -23.65,-23.65v4.3l-2.15,-2.15v37.44863c-7.96362,
        -18.23219 -26.15146,-30.99863 -47.3,-30.99863c-16.61998,0 -31.40918,7.88633 -40.85,20.11006v-28.71006h-10.41826c-0.12072,
        -0.02018 -0.24294,-0.03001 -0.36533,-0.02939c-0.10416,0.00226 -0.20801,0.01208 -0.31074,0.02939h-7.92393c-0.12072,
        -0.02018 -0.24294,-0.03001 -0.36533,-0.02939zM19.35,38.7h4.3v21.5c-0.01097,0.77537 0.39641,1.49657 1.06613,
        1.88746c0.66972,0.39088 1.49803,0.39088 2.16775,0c0.66972,-0.39088 1.07709,-1.11209 1.06613,
        -1.88746v-21.5h4.3v21.5c-0.01097,0.77537 0.39641,1.49657 1.06613,1.88746c0.66972,0.39088 1.49803,
        0.39088 2.16775,0c0.66972,-0.39088 1.07709,-1.11209 1.06613,-1.88746v-21.5h4.3v27.95c0,3.99306 -2.16554,
        7.43978 -5.3792,9.30127l-1.0708,0.62148v65.32725c0,2.40083 -1.89917,4.3 -4.3,4.3c-2.40083,0 -4.3,
        -1.89917 -4.3,-4.3v-65.32725l-1.0708,-0.62148c-3.21366,-1.86149 -5.3792,-5.30821 -5.3792,
        -9.30127zM137.6,39.13252c9.64339,1.1125 17.2,8.96841 17.2,18.91748v33.07305l-8.6,4.3v46.47695c0,
        2.47703 -2.01251,4.42704 -4.53516,4.2958c-2.26401,-0.11857 -4.06484,-2.24277 -4.06484,-4.66113zM86,
        47.3c26.14853,0 47.3,21.15147 47.3,47.3c0,26.14853 -21.15147,47.3 -47.3,47.3c-26.14853,0 -47.3,
        -21.15147 -47.3,-47.3c0,-26.14853 21.15147,-47.3 47.3,-47.3zM86,64.5c-1.18741,0 -2.15,0.96259 -2.15,
        2.15c0,1.18741 0.96259,2.15 2.15,2.15c1.18741,0 2.15,-0.96259 2.15,-2.15c0,-1.18741 -0.96259,-2.15 -2.15,
        -2.15zM75.32139,66.6248c-0.28809,-0.00223 -0.5737,0.05346 -0.83984,0.16377c-0.52678,0.21828 -0.94528,
        0.63689 -1.16341,1.16373c-0.21814,0.52684 -0.21806,1.11876 0.00023,1.64554c0.21828,0.52678 0.63689,
        0.94527 1.16374,1.16341c0.52684,0.21814 1.11876,0.21806 1.64554,-0.00023c0.52678,-0.21828 0.94527,
        -0.63689 1.16341,-1.16373c0.21814,-0.52684 0.21806,-1.11876 -0.00023,-1.64554c-0.33049,-0.79764 -1.10607,
        -1.3202 -1.96943,-1.32695zM96.7458,66.6248c-0.88776,-0.02071 -1.69692,0.50649 -2.03662,1.32695c-0.21829,
        0.52678 -0.21837,1.1187 -0.00023,1.64554c0.21814,0.52684 0.63663,0.94545 1.16341,1.16373c0.52678,
        0.21829 1.1187,0.21837 1.64554,0.00023c0.52684,-0.21814 0.94545,-0.63663 1.16374,-1.16341c0.21829,
        -0.52678 0.21837,-1.1187 0.00023,-1.64554c-0.21814,-0.52684 -0.63663,-0.94545 -1.16341,-1.16373c-0.24523,
        -0.10183 -0.5072,-0.15736 -0.77266,-0.16377zM66.26787,72.68428c-0.58035,-0.0078 -1.1392,0.21938 -1.54951,
        0.62988c-0.83941,0.83959 -0.83941,2.20065 0,3.04024c0.83959,0.83941 2.20065,0.83941 3.04024,0c0.83941,
        -0.83959 0.83941,-2.20065 0,-3.04024c-0.39591,-0.3961 -0.93074,-0.62209 -1.49072,-0.62988zM105.79512,
        72.68848c-0.5818,-0.00894 -1.14238,0.21833 -1.55371,0.62988c-0.83941,0.83959 -0.83941,2.20065 0,
        3.04024c0.83959,0.83941 2.20065,0.83941 3.04024,0c0.83941,-0.83959 0.83941,-2.20065 0,-3.04024c-0.39487,
        -0.39509 -0.92801,-0.621 -1.48653,-0.62988zM111.83779,81.75039c-0.28809,-0.00223 -0.5737,0.05346 -0.83984,
        0.16377c-0.52678,0.21828 -0.94527,0.63689 -1.16341,1.16374c-0.21814,0.52684 -0.21806,1.11876 0.00023,
        1.64554c0.21828,0.52678 0.63689,0.94527 1.16373,1.16341c0.52684,0.21814 1.11876,0.21806 1.64554,
        -0.00023c0.52678,-0.21828 0.94528,-0.63689 1.16341,-1.16373c0.21814,-0.52684 0.21806,-1.11876 -0.00023,
        -1.64554c-0.33049,-0.79763 -1.10607,-1.3202 -1.96943,-1.32695zM60.22939,81.75459c-0.88776,-0.02071 -1.69692,
        0.50649 -2.03662,1.32695c-0.21829,0.52678 -0.21837,1.1187 -0.00023,1.64554c0.21814,0.52684 0.63663,
        0.94545 1.16341,1.16373c0.52731,0.21804 1.11967,0.21753 1.64659,-0.00143c0.52693,-0.21896 0.9452,
        -0.63841 1.16268,-1.16595c0.21829,-0.52678 0.21837,-1.1187 0.00023,-1.64554c-0.21814,-0.52684 -0.63663,
        -0.94545 -1.16341,-1.16374c-0.2455,-0.10039 -0.50747,-0.15449 -0.77266,-0.15957zM58.05,92.45c-1.18741,
        0 -2.15,0.96259 -2.15,2.15c0,1.18741 0.96259,2.15 2.15,2.15c1.18741,0 2.15,-0.96259 2.15,-2.15c0,
        -1.18741 -0.96259,-2.15 -2.15,-2.15zM60.1958,103.14541c-0.28809,-0.00223 -0.5737,0.05346 -0.83984,
        0.16377c-0.52678,0.21828 -0.94528,0.63689 -1.16341,1.16373c-0.21814,0.52684 -0.21806,1.11876 0.00023,
        1.64554c0.21828,0.52678 0.63689,0.94528 1.16373,1.16341c0.52684,0.21814 1.11876,0.21806 1.64554,
        -0.00023c0.52678,-0.21828 0.94527,-0.63689 1.16341,-1.16374c0.21814,-0.52684 0.21806,-1.11876 -0.00023,
        -1.64554c-0.33049,-0.79763 -1.10607,-1.3202 -1.96943,-1.32695zM66.26787,112.21152c-0.5818,
        -0.00894 -1.14238,0.21833 -1.55371,0.62988c-0.83941,0.83959 -0.83941,2.20065 0,3.04024c0.83959,
        0.83941 2.20065,0.83941 3.04024,0c0.83941,-0.83959 0.83941,-2.20065 0,-3.04024c-0.39487,-0.39509 -0.928,
        -0.621 -1.48652,-0.62988zM75.35078,118.271c-0.88625,-0.01896 -1.69328,0.50794 -2.03242,1.32695c-0.21829,
        0.52678 -0.21837,1.1187 -0.00023,1.64554c0.21814,0.52684 0.63663,0.94545 1.16341,1.16373c0.52678,
        0.21829 1.1187,0.21837 1.64554,0.00023c0.52684,-0.21814 0.94545,-0.63663 1.16373,-1.16341c0.21829,
        -0.52678 0.21837,-1.1187 0.00023,-1.64554c-0.21814,-0.52684 -0.63663,-0.94545 -1.16341,-1.16373c-0.24654,
        -0.10234 -0.50998,-0.15788 -0.77686,-0.16377z">
        </path>
        </g>
        <g id="subtracted-icon" fill="#ffebcd" stroke="none">
        <path d="M26.13174,34.4h7.92393c0.10273,-0.01731 0.20659,-0.02714 0.31074,-0.02939c0.12239,-0.00062 0.24461,
        0.00922 0.36533,0.02939h10.41826v28.71006c9.44082,-12.22373 24.23002,-20.11006 40.85,-20.11006c21.14854,
        0 39.33638,12.76644 47.3,30.99863v-37.44863l2.15,2.15v-4.3c13.03633,0 23.65,10.61367 23.65,23.65v35.72695l-8.6,
        4.3v5.4781c-0.3906,-0.15709 -0.78413,-0.30703 -1.18035,-0.44966l-2.322,-5.805c-0.1917,-0.47956 -0.46401,
        -0.91072 -0.79765,-1.28044v-0.59692l8.6,-4.3v-33.07305c0,-9.94907 -7.5566,-17.80498 -17.2,-18.91748v55.46748h-4.3c0,
        -26.14853 -21.15147,-47.3 -47.3,-47.3c-26.14853,0 -47.3,21.15147 -47.3,47.3c0,26.14853 21.15147,47.3 47.3,
        47.3c6.1575,0 12.0379,-1.17288 17.43027,-3.3077c0.09316,0.98793 0.23006,1.97626 0.41043,2.96155l-1.59726,
        2.02997c-5.1078,1.69712 -10.56905,2.61618 -16.24344,2.61618c-21.14854,0 -39.33638,-12.76644 -47.3,
        -30.99863v26.69863c0,4.72427 -3.87573,8.6 -8.6,8.6c-4.72427,0 -8.6,-3.87573 -8.6,-8.6v-63.29063c-3.77737,
        -2.73383 -6.45,-6.95249 -6.45,-11.95938v-32.25h10.40566c0.10273,-0.01731 0.20659,-0.02714 0.31074,-0.02939c0.12239,
        -0.00062 0.24461,0.00922 0.36533,0.02939zM19.35,66.65c0,3.99306 2.16554,7.43978 5.3792,9.30127l1.0708,
        0.62148v65.32725c0,2.40083 1.89917,4.3 4.3,4.3c2.40083,0 4.3,-1.89917 4.3,-4.3v-65.32725l1.0708,-0.62148c3.21366,
        -1.86149 5.3792,-5.30821 5.3792,-9.30127v-27.95h-4.3v21.5c0.01097,0.77537 -0.39641,1.49657 -1.06613,1.88746c-0.66972,
        0.39088 -1.49803,0.39088 -2.16775,0c-0.66972,-0.39088 -1.07709,-1.11209 -1.06613,-1.88746v-21.5h-4.3v21.5c0.01097,
        0.77537 -0.39641,1.49657 -1.06613,1.88746c-0.66972,0.39088 -1.49803,0.39088 -2.16775,0c-0.66972,-0.39088 -1.07709,
        -1.11209 -1.06613,-1.88746v-21.5h-4.3zM88.15,66.65c0,1.18741 -0.96259,2.15 -2.15,2.15c-1.18741,0 -2.15,
        -0.96259 -2.15,-2.15c0,-1.18741 0.96259,-2.15 2.15,-2.15c1.18741,0 2.15,0.96259 2.15,2.15zM77.29082,
        67.95176c0.21829,0.52678 0.21837,1.1187 0.00023,1.64554c-0.21814,0.52684 -0.63663,0.94545 -1.16341,
        1.16373c-0.52678,0.21829 -1.1187,0.21837 -1.64554,0.00023c-0.52684,-0.21814 -0.94545,-0.63663 -1.16374,
        -1.16341c-0.21829,-0.52678 -0.21837,-1.1187 -0.00023,-1.64554c0.21814,-0.52684 0.63663,-0.94545 1.16341,
        -1.16373c0.26615,-0.11031 0.55175,-0.166 0.83984,-0.16377c0.86337,0.00675 1.63894,0.52932 1.96943,1.32695zM97.51846,
        66.78857c0.52678,0.21828 0.94528,0.63689 1.16341,1.16373c0.21814,0.52684 0.21806,1.11876 -0.00023,1.64554c-0.21828,
        0.52678 -0.63689,0.94527 -1.16374,1.16341c-0.52684,0.21814 -1.11876,0.21806 -1.64554,-0.00023c-0.52678,-0.21828 -0.94527,
        \-0.63689 -1.16341,-1.16373c-0.21814,-0.52684 -0.21806,-1.11876 0.00023,-1.64554c0.3397,-0.82046 1.14886,-1.34767 2.03662,
        -1.32695c0.26546,0.00641 0.52743,0.06194 0.77266,0.16377zM67.75859,73.31416c0.83941,0.83959 0.83941,2.20065 0,
        3.04024c-0.83959,0.83941 -2.20065,0.83941 -3.04024,0c-0.83941,-0.83959 -0.83941,-2.20065 0,-3.04024c0.41031,
        -0.4105 0.96916,-0.63768 1.54951,-0.62988c0.55998,0.0078 1.09482,0.23378 1.49072,0.62988zM107.28164,73.31836c0.83941,
        0.83959 0.83941,2.20065 0,3.04024c-0.83959,0.83941 -2.20065,0.83941 -3.04024,0c-0.83941,-0.83959 -0.83941,-2.20065 0,
        -3.04024c0.41133,-0.41156 0.97191,-0.63882 1.55371,-0.62988c0.55852,0.00888 1.09166,0.23479 1.48653,0.62988zM113.80723,
        83.07734c0.21829,0.52678 0.21837,1.1187 0.00023,1.64554c-0.21814,0.52684 -0.63663,0.94545 -1.16341,1.16373c-0.52678,
        0.21829 -1.1187,0.21837 -1.64554,0.00023c-0.52684,-0.21814 -0.94545,-0.63663 -1.16373,-1.16341c-0.21829,-0.52678 -0.21837,
        -1.1187 -0.00023,-1.64554c0.21814,-0.52684 0.63663,-0.94545 1.16341,-1.16374c0.26615,-0.11031 0.55175,-0.166 0.83984,
        -0.16377c0.86337,0.00675 1.63894,0.52932 1.96943,1.32695zM61.00205,81.91416c0.52678,0.21828 0.94527,0.63689 1.16341,
        1.16374c0.21814,0.52684 0.21806,1.11876 -0.00023,1.64554c-0.21748,0.52754 -0.63576,0.94699 -1.16268,1.16595c-0.52693,
        0.21896 -1.11928,0.21948 -1.64659,0.00143c-0.52678,-0.21828 -0.94528,-0.63689 -1.16341,-1.16373c-0.21814,-0.52684 -0.21806,
        -1.11876 0.00023,-1.64554c0.3397,-0.82046 1.14886,-1.34767 2.03662,-1.32695c0.26519,0.00507 0.52715,0.05917 0.77266,
        0.15957zM60.2,94.6c0,1.18741 -0.96259,2.15 -2.15,2.15c-1.18741,0 -2.15,-0.96259 -2.15,-2.15c0,-1.18741 0.96259,
        -2.15 2.15,-2.15c1.18741,0 2.15,0.96259 2.15,2.15zM62.16523,104.47236c0.21829,0.52678 0.21837,1.1187 0.00023,
        1.64554c-0.21814,0.52684 -0.63663,0.94545 -1.16341,1.16374c-0.52678,0.21829 -1.1187,0.21837 -1.64554,0.00023c-0.52684,
        -0.21814 -0.94545,-0.63663 -1.16373,-1.16341c-0.21829,-0.52678 -0.21837,-1.1187 -0.00023,-1.64554c0.21814,-0.52684 0.63663,
        -0.94545 1.16341,-1.16373c0.26615,-0.11031 0.55175,-0.166 0.83984,-0.16377c0.86336,0.00676 1.63894,0.52932 1.96943,
        1.32695zM67.75439,112.84141c0.83941,0.83959 0.83941,2.20065 0,3.04024c-0.83959,0.83941 -2.20065,0.83941 -3.04024,
        0c-0.83941,-0.83959 -0.83941,-2.20065 0,-3.04024c0.41133,-0.41156 0.97191,-0.63882 1.55371,-0.62988c0.55852,
        0.00888 1.09165,0.23479 1.48652,0.62988zM76.12764,118.43477c0.52678,0.21828 0.94527,0.63689 1.16341,1.16373c0.21814,
        0.52684 0.21806,1.11876 -0.00023,1.64554c-0.21828,0.52678 -0.63689,0.94528 -1.16373,1.16341c-0.52684,0.21814 -1.11876,
        0.21806 -1.64554,-0.00023c-0.52678,-0.21828 -0.94528,-0.63689 -1.16341,-1.16373c-0.21814,-0.52684 -0.21806,-1.11876 0.00023,
        -1.64554c0.33914,-0.81901 1.14618,-1.34592 2.03242,-1.32695c0.26687,0.00589 0.53032,0.06143 0.77686,0.16377z">
        </path>
        </g>
        <g stroke="none">
        <g id="Layer_1" fill="#ffebcd">
        <path d="M167.7817,135.45c0,-2.38865 -0.29885,-4.79665 -0.8858,-7.1767l5.1041,-6.48655l-5.32985,-9.2235l-8.1657,
        1.17605c-3.5045,-3.3583 -7.7615,-5.8136 -12.42915,-7.16595l-3.06805,-7.67335h-10.64895l-3.0702,7.6712c-4.66765,
        1.3545 -8.9268,3.8098 -12.4313,7.1681l-8.16355,-1.17605l-5.32985,9.2235l5.1041,6.48655c-0.58695,2.38005 -0.8858,
        4.78805 -0.8858,7.1767c0,2.38865 0.29885,4.79665 0.8858,7.1767l-5.1041,6.48655l5.32985,9.2235l8.1657,-1.17605c3.5045,
        3.3583 7.7615,5.8136 12.42915,7.16595l3.06805,7.67335h10.64895l3.0702,-7.6712c4.66765,-1.35235 8.92465,-3.80765 12.42915,
        -7.16595l8.1657,1.17605l5.32985,-9.2235l-5.1041,-6.48655c0.58695,-2.3822 0.8858,-4.7902 0.8858,-7.17885zM162.47335,
        128.3765c0.6708,2.3435 1.00835,4.72355 1.00835,7.0735c0,2.34995 -0.33755,4.73 -1.00835,7.0735l-0.301,1.05565l4.644,
        5.9039l-2.41445,4.18175l-7.4347,-1.0707l-0.76325,0.78905c-3.34325,3.45075 -7.5766,5.8953 -12.24855,7.06275l-1.06425,
        0.2666l-2.795,6.9875h-4.8289l-2.795,-6.9875l-1.06425,-0.2666c-4.67195,-1.16745 -8.90745,-3.612 -12.24855,-7.06275l-0.76325,
        -0.78905l-7.4347,1.0707l-2.41445,-4.18175l4.644,-5.9039l-0.301,-1.05565c-0.6708,-2.3435 -1.00835,-4.72355 -1.00835,
        -7.0735c0,-2.34995 0.33755,-4.73 1.00835,-7.0735l0.301,-1.05565l-4.644,-5.9039l2.41445,-4.18175l7.4347,1.0707l0.76325,
        -0.78905c3.34325,-3.45075 7.5766,-5.8953 12.24855,-7.06275l1.06425,-0.2666l2.795,-6.9875h4.8289l2.795,6.9875l1.06425,
        0.2666c4.67195,1.16745 8.90745,3.612 12.24855,7.06275l0.76325,0.78905l7.4347,-1.0707l2.41445,4.18175l-4.644,5.9039zM137.6817,
        118.25c-9.48365,0 -17.2,7.71635 -17.2,17.2c0,9.48365 7.71635,17.2 17.2,17.2c9.48365,0 17.2,-7.71635 17.2,-17.2c0,
        -9.48365 -7.71635,-17.2 -17.2,-17.2zM137.6817,148.35c-7.11435,0 -12.9,-5.78565 -12.9,-12.9c0,-7.11435 5.78565,
        -12.9 12.9,-12.9c7.11435,0 12.9,5.78565 12.9,12.9c0,7.11435 -5.78565,12.9 -12.9,12.9z">
        </path>
        </g>
        <g id="Layer_1" fill="#000000" opacity="0">
        <path d="M171.5227,141.55385c0.37195,-2.03175 0.559,-4.0764 0.559,-6.10385c0,-2.02745 -0.18705,-4.0721 -0.559,
        -6.10385l3.8571,-4.902c1.0879,-1.38245 1.22335,-3.28735 0.344,-4.80955l-5.32985,-9.2235c-0.77615,-1.3416 -2.2016,
        -2.14785 -3.72165,-2.14785c-0.20425,0 -0.4085,0.01505 -0.6149,0.043l-6.17695,0.8901c-3.1218,-2.63375 -6.71445,
        -4.70635 -10.5608,-6.09095l-2.322,-5.805c-0.65145,-1.6297 -2.23385,-2.7004 -3.9904,-2.7004h-10.64895c-1.7587,
        0 -3.33895,1.0707 -3.99255,2.70255l-2.322,5.805c-3.8485,1.38245 -7.439,3.45505 -10.56295,6.0888l-6.1748,
        -0.8901c-0.20425,-0.0301 -0.41065,-0.043 -0.6149,-0.043c-1.52005,0 -2.9455,0.80625 -3.72165,2.14785l-5.32985,
        9.2235c-0.87935,1.5222 -0.7439,3.4271 0.344,4.80955l3.8571,4.902c-0.37195,2.03175 -0.559,4.0764 -0.559,6.10385c0,
        2.02745 0.18705,4.0721 0.559,6.10385l-3.8571,4.902c-1.0879,1.38245 -1.22335,3.28735 -0.344,4.80955l5.32985,
        9.2235c0.77615,1.3416 2.2016,2.15 3.72165,2.15c0.20425,0 0.4085,-0.01505 0.6149,-0.04515l6.17695,-0.8901c3.1218,
        2.63375 6.71445,4.70635 10.5608,6.0888l2.322,5.805c0.65145,1.63185 2.23385,2.70255 3.9904,2.70255h10.64895c1.7587,
        0 3.33895,-1.0707 3.99255,-2.70255l2.322,-5.805c3.84635,-1.3846 7.439,-3.45505 10.5608,-6.0888l6.17695,0.8901c0.2064,
        0.0301 0.41065,0.04515 0.6149,0.04515c1.52005,0 2.9455,-0.80625 3.72165,-2.15l5.32985,-9.2235c0.87935,-1.5222 0.7439,
        -3.4271 -0.344,-4.80955z">
        </path>
        </g>
        </g>
        <path d="M103.3634,172v-73.1h68.6366v73.1z" id="overlay-drag" fill="#ff0000" stroke="none" opacity="0"></path></g></svg>